<svg height="512pt" viewBox="0 -6 512 512" width="512pt" xmlns="http://www.w3.org/2000/svg"><path d="m256 452.4375-69.644531 39.429688-37.273438-70.820313-79.902343-4.488281 6.933593-79.726563-64.796875-46.972656 48.9375-63.324219-29.113281-74.546875 75.402344-26.8125 15.8125-78.453125 77.929687 18.207032 55.714844-57.449219 55.714844 57.449219 77.929687-18.207032 15.8125 78.453125 75.402344 26.8125-29.113281 74.546875 48.9375 63.324219-64.796875 46.972656 6.933593 79.726563-79.90625 4.488281-37.269531 70.820313zm0 0" fill="#fd6f71"/><path d="m144.777344 221.609375c-55.292969 0-73.085938 29.234375-73.085938 29.234375h-64.191406v116.941406h64.191406s17.792969 29.234375 73.085938 29.234375h28.601562l16.207032-160.796875zm0 0" fill="#e6b39d"/><path d="m367.222656 221.609375c55.292969 0 73.085938 29.234375 73.085938 29.234375h64.191406v116.941406h-64.191406s-17.792969 29.234375-73.085938 29.234375h-28.601562l-16.207032-160.796875zm0 0" fill="#e6b39d"/><path d="m151.453125 331.238281c0 12.109375 9.816406 21.925781 21.925781 21.925781h32.410156c12.113282 0 21.929688-9.816406 21.929688-21.925781s-9.820312-21.925781-21.929688-21.925781h-32.410156c-12.109375 0-21.925781 9.816406-21.925781 21.925781zm0 0" fill="#f2bda6"/><path d="m151.453125 287.386719c0 12.109375 9.816406 21.925781 21.925781 21.925781h32.410156c12.113282 0 21.929688-9.816406 21.929688-21.925781s-9.820312-21.925781-21.929688-21.925781h-32.410156c-12.109375 0-21.925781 9.816406-21.925781 21.925781zm0 0" fill="#fbc4ac"/><path d="m151.453125 375.09375c0 12.109375 9.816406 21.925781 21.925781 21.925781h32.410156c12.113282 0 21.929688-9.816406 21.929688-21.925781s-9.820312-21.925781-21.929688-21.925781h-32.410156c-12.109375 0-21.925781 9.816406-21.925781 21.925781zm0 0" fill="#fbc4ac"/><path d="m205.789062 221.609375h-61.011718c12.109375 0 21.925781 9.816406 21.925781 21.925781v21.925782h39.085937c12.109376 0 21.925782-9.820313 21.925782-21.925782.003906-12.109375-9.8125-21.925781-21.925782-21.925781zm0 0" fill="#f2bda6"/><path d="m360.546875 331.238281c0 12.109375-9.816406 21.925781-21.925781 21.925781h-32.410156c-12.113282 0-21.929688-9.816406-21.929688-21.925781s9.820312-21.925781 21.929688-21.925781h32.410156c12.109375 0 21.925781 9.816406 21.925781 21.925781zm0 0" fill="#f2bda6"/><path d="m360.546875 287.386719c0 12.109375-9.816406 21.925781-21.925781 21.925781h-32.410156c-12.113282 0-21.929688-9.816406-21.929688-21.925781s9.820312-21.925781 21.929688-21.925781h32.410156c12.109375 0 21.925781 9.816406 21.925781 21.925781zm0 0" fill="#fbc4ac"/><path d="m360.546875 375.09375c0 12.109375-9.816406 21.925781-21.925781 21.925781h-32.410156c-12.113282 0-21.929688-9.816406-21.929688-21.925781s9.820312-21.925781 21.929688-21.925781h32.410156c12.109375 0 21.925781 9.816406 21.925781 21.925781zm0 0" fill="#fbc4ac"/><path d="m306.207031 221.609375h61.015625c-12.113281 0-21.925781 9.816406-21.925781 21.925781v21.925782h-39.085937c-12.113282 0-21.929688-9.820313-21.929688-21.925782 0-12.109375 9.816406-21.925781 21.925781-21.925781zm0 0" fill="#f2bda6"/><path d="m144.777344 221.609375c-12.109375 0-21.925782 9.816406-21.925782 21.925781v32.410156c0 12.109376 9.820313 21.925782 21.925782 21.925782 12.113281 0 21.925781-9.816406 21.925781-21.925782v-32.410156c0-12.109375-9.816406-21.925781-21.925781-21.925781zm0 0" fill="#fbc4ac"/><path d="m367.222656 221.609375c12.109375 0 21.925782 9.816406 21.925782 21.925781v32.410156c0 12.109376-9.820313 21.925782-21.925782 21.925782-12.113281 0-21.925781-9.816406-21.925781-21.925782v-32.410156c0-12.109375 9.8125-21.925781 21.925781-21.925781zm0 0" fill="#fbc4ac"/><path d="m167.035156 127.453125c-4.140625 0-7.5 3.359375-7.5 7.5v16.101563c0 4.144531 3.359375 7.5 7.5 7.5 4.144532 0 7.5-3.355469 7.5-7.5v-16.101563c0-4.140625-3.355468-7.5-7.5-7.5zm0 0"/><path d="m344.964844 158.554688c4.140625 0 7.5-3.355469 7.5-7.5v-16.101563c0-4.140625-3.359375-7.5-7.5-7.5-4.144532 0-7.5 3.359375-7.5 7.5v16.101563c0 4.144531 3.355468 7.5 7.5 7.5zm0 0"/><path d="m283.605469 154.871094c2.722656-3.117188 2.40625-7.855469-.710938-10.582032-3.121093-2.726562-7.859375-2.410156-10.585937.710938-3.96875 4.542969-9.914063 7.148438-16.308594 7.148438s-12.339844-2.605469-16.3125-7.148438c-2.726562-3.121094-7.464844-3.4375-10.582031-.710938-3.117188 2.726563-3.4375 7.464844-.710938 10.582032 6.820313 7.804687 16.882813 12.28125 27.605469 12.28125 10.722656-.003906 20.78125-4.476563 27.605469-12.28125zm0 0"/><path d="m7.5 301.699219c-4.140625 0-7.5 3.355469-7.5 7.5v58.585937c0 4.140625 3.359375 7.5 7.5 7.5h57.738281s-3.519531 40.507813-3.53125 40.628906c-.363281 4.191407 2.882813 7.902344 7.054688 8.136719l75.664062 4.246094s35.253907 66.988281 35.292969 67.0625c1.945312 3.699219 6.695312 5.09375 10.332031 3.03125l65.949219-37.332031s65.941406 37.332031 65.949219 37.335937c3.625 2.050781 8.40625.664063 10.332031-3.035156l35.292969-67.0625s75.332031-4.226563 75.664062-4.246094c4.199219-.234375 7.417969-3.953125 7.050781-8.136719l-3.53125-40.628906h57.738282c4.144531 0 7.5-3.355468 7.5-7.5v-25.585937c0-4.144531-3.355469-7.5-7.5-7.5-4.140625 0-7.5 3.355469-7.5 7.5v18.085937h-56.6875c-2.617188 0-5.011719 1.308594-6.371094 3.542969-.078125.125-.378906.578125-.910156 1.269531-.042969.050782-.09375.09375-.136719.148438-3.8125 4.796875-17.269531 18.734375-47.132813 23.011718-6.136718.878907-12.34375 1.265626-18.539062 1.265626h-2.957031c.03125-.058594.058593-.113282.085937-.171876 2.417969-4.332031 3.699219-9.292968 3.699219-14.257812 0-8.269531-3.605469-16.320312-9.746094-21.855469-.027343-.023437-.050781-.046875-.078125-.070312.027344-.023438.050782-.046875.078125-.070313 6.101563-5.515625 9.746094-13.625 9.746094-21.855468 0-8.265626-3.613281-16.320313-9.742187-21.851563-.023438-.023437-.046876-.046875-.070313-.066406.429687-.386719.847656-.789063 1.257813-1.199219.980468-.988281 1.90625-2.050781 2.738281-3.171875.070312.011719.140625.015625.207031.027344 1.578125.257812 3.183594.394531 4.78125.394531 16.226562 0 29.425781-13.199219 29.425781-29.425781v-32.414063c0-3.941406-.800781-7.910156-2.355469-11.535156-.011718-.027344-.023437-.054688-.035156-.082031.203125.042969.414063.085937.613282.132812 10.496093 2.429688 20.753906 6.554688 29.402343 13.0625 3.59375 2.707031 7.191407 5.800781 9.632813 9.632813 1.359375 2.234375 3.789062 3.601562 6.40625 3.601562h30.242187 26.449219v53.851563c0 4.140625 3.359375 7.5 7.5 7.5s7.5-3.359375 7.5-7.5v-61.351563c0-4.144531-3.359375-7.5-7.5-7.5h-30.285156l-13.9375-18.035156s27.496094-70.402344 27.570312-70.589844c1.53125-3.925781-.527344-8.394531-4.476562-9.796875l-71.402344-25.390625s-14.941406-74.148437-14.972656-74.289062c-.828125-4.121094-4.96875-6.777344-9.058594-5.824219l-73.792969 17.242187s-52.628906-54.265624-52.761719-54.402343c-2.929687-3.019531-7.847656-3.011719-10.765624 0l-52.761719 54.402343s-73.628907-17.203124-73.796875-17.242187c-4.066406-.949219-8.234375 1.746094-9.058594 5.824219l-14.972656 74.289062-71.402344 25.390625c-3.964844 1.410157-6.003906 5.871094-4.472656 9.792969l27.570312 70.59375-13.9375 18.03125h-30.285156c-4.140625 0-7.5 3.359375-7.5 7.5v28.355469c0 4.140625 3.359375 7.5 7.5 7.5s7.5-3.359375 7.5-7.5v-20.855469h56.691406c2.617188 0 5.007813-1.304688 6.367188-3.539062 2.992187-4.914063 8.132812-8.796876 12.847656-11.929688 7.917969-5.261719 16.996094-8.691406 26.230469-10.824219.199219-.046875.40625-.089843.605469-.132812-.011719.027343-.019532.050781-.03125.078125-1.515626 3.558594-2.359376 7.59375-2.359376 11.539062v32.414063c0 16.226562 13.199219 29.425781 29.425782 29.425781 1.667968 0 3.347656-.140625 4.992187-.421875.269531.367187 3.765625 4.578125 3.992188 4.371094-.023438.023437-.050781.046875-.074219.070312-6.105469 5.53125-9.738281 13.605469-9.738281 21.847657 0 6.21875 2.082031 12.324218 5.695312 17.367187 1.164063 1.628906 2.546875 3.164063 4.050781 4.484375.027344.023438.050782.050781.078126.074219-.027344.023437-.050782.050781-.078126.074219-3.761718 3.3125-6.628906 7.800781-8.226562 12.539062-2.605469 7.726562-1.789062 16.453125 2.179688 23.570312.03125.054688.054687.113282.085937.167969-7.1875 0-14.34375-.242187-21.472656-1.261719-29.878907-4.273437-43.339844-18.21875-47.15625-23.015624-.050781-.066407-.113281-.117188-.167969-.179688-1.949219-2.546875-3.710938-4.777344-7.246094-4.777344h-56.691406v-51.089844c0-4.140624-3.359375-7.496093-7.5-7.496093zm298.707031 87.824219c-7.710937 0-14.425781-6.5-14.425781-14.429688 0-7.8125 6.625-14.425781 14.425781-14.425781h32.414063c7.953125 0 14.425781 6.472656 14.425781 14.425781 0 7.957031-6.472656 14.429688-14.425781 14.429688 0 0-32.390625 0-32.414063 0zm75.441407-113.574219c0 7.957031-6.472657 14.425781-14.429688 14.425781-.042969 0-.085938-.003906-.128906-.003906-7.710938-.070313-14.296875-6.695313-14.296875-14.421875v-32.414063c0-7.953125 6.46875-14.421875 14.429687-14.425781 7.953125 0 14.425782 6.472656 14.425782 14.425781zm-75.441407-46.839844h35.371094c-.027344.054687-.054687.113281-.085937.167969-2.417969 4.335937-3.695313 9.292968-3.695313 14.257812v14.425782h-31.585937c-7.957032 0-14.429688-6.472657-14.429688-14.425782s6.472656-14.425781 14.425781-14.425781zm0 43.851563h31.585938c0 4.480468.21875 8.761718 1.765625 13.019531.019531.054687.039062.109375.058594.164062 1.730468 4.699219 4.628906 8.886719 8.4375 12.15625-2.605469 2.25-5.988282 3.515625-9.433594 3.515625h-32.414063c-7.953125 0-14.425781-6.472656-14.425781-14.425781 0-7.957031 6.472656-14.425781 14.425781-14.429687zm-9.171875 69.410156c-3.207031-2.648438-5.253906-6.65625-5.253906-11.128906 0-7.855469 6.574219-14.425782 14.425781-14.425782h32.414063c7.859375 0 14.425781 6.570313 14.425781 14.425782 0 7.953124-6.472656 14.425781-14.425781 14.425781h-32.414063c-3.480469 0-6.675781-1.238281-9.171875-3.296875zm-76.816406-54.984375c0 7.957031-6.472656 14.429687-14.425781 14.429687h-32.414063c-2.503906 0-5.023437-.6875-7.191406-1.933594-.128906-.074218-2.277344-1.558593-2.246094-1.585937 6.460938-5.535156 10.265625-13.84375 10.265625-22.347656v-2.988281h31.589844c7.949219.003906 14.421875 6.472656 14.421875 14.425781zm-11.527344 73.597656c6.429688 1.414063 11.527344 7.371094 11.527344 14.109375 0 7.742188-6.53125 14.425781-14.425781 14.425781h-32.414063c-7.953125 0-14.425781-6.472656-14.425781-14.425781s6.472656-14.425781 14.425781-14.425781h32.414063c.984375 0 1.957031.109375 2.898437.316406zm-63.761718-70.617187c-.050782 0-.101563.007812-.152344.007812-7.953125 0-14.425782-6.472656-14.425782-14.425781v-32.414063c0-7.953125 6.472657-14.425781 14.433594-14.425781 7.949219.003906 14.421875 6.472656 14.421875 14.425781v32.414063c-.003906 7.730469-6.539062 14.34375-14.277343 14.417969zm60.863281 55.300781h-32.414063c-7.953125 0-14.425781-6.472657-14.425781-14.425781 0-7.828126 6.609375-14.425782 14.425781-14.425782h32.414063c7.457031 0 13.609375 5.6875 14.351562 12.953125.851563 8.375-5.925781 15.898438-14.351562 15.898438zm0-87.707031h-31.585938v-14.425782c0-4.949218-1.289062-9.921875-3.695312-14.25-.03125-.058594-.058594-.117187-.089844-.175781h35.371094c7.953125 0 14.425781 6.472656 14.425781 14.425781 0 7.957032-6.472656 14.425782-14.425781 14.425782zm0 146.5625c7.269531 0 14.398437-2.769532 19.773437-7.65625 5.925782-5.386719 9.652344-13.152344 9.652344-21.773438 0-8.269531-3.597656-16.316406-9.742188-21.847656-.027343-.027344-.050781-.050782-.078124-.078125.027343-.023438.050781-.050781.078124-.074219 6.121094-5.503906 9.742188-13.621094 9.742188-21.851562 0-8.238282-3.574219-16.371094-9.738281-21.847657-.03125-.027343-.054688-.054687-.082031-.078125.027343-.027344.050781-.054687.078124-.078125.363282-.324219.722657-.664062 1.066407-1.007812 5.464843-5.441407 8.675781-13.125 8.675781-20.84375 0-8.277344-3.605469-16.308594-9.742188-21.851563-.027343-.023437-.050781-.050781-.078124-.074218.023437-.023438.050781-.050782.074218-.074219 6.15625-5.519531 9.746094-13.585938 9.746094-21.851563 0-16.226562-13.203125-29.425781-29.425781-29.425781 0 0-61.015625 0-61.035157 0-47.648437.003906-69.71875 20.675781-76.816406 29.234375h-11.199218l9.445312-12.222656c1.613281-2.082032 2.011719-4.859375 1.050781-7.3125l-26.296875-67.34375 68.117188-24.222656c2.480468-.882813 4.316406-3 4.835937-5.582032l14.285157-70.871094 70.398437 16.449219c2.566406.597657 5.257813-.191406 7.089844-2.082031l50.332031-51.898438 50.332031 51.898438c1.832031 1.890625 4.523438 2.679688 7.089844 2.082031l70.398437-16.449219 14.285157 70.871094c.519531 2.582032 2.355469 4.703125 4.835937 5.582032l68.117188 24.222656-26.300782 67.34375c-.957031 2.453125-.558593 5.230468 1.054688 7.316406l9.441406 12.21875h-11.195312c-7.09375-8.558594-29.164063-29.226562-76.835938-29.234375h-61.015625c-16.226562 0-29.425781 13.199219-29.425781 29.425781 0 8.214844 3.640625 16.355469 9.746094 21.855469.023437.023437.050781.046875.074218.070313-.027343.027343-.050781.050781-.078124.078124-6.113282 5.515626-9.742188 13.613282-9.742188 21.847657 0 8.304687 3.621094 16.277343 9.742188 21.851562.027343.027344.050781.050781.078124.078125-.027343.023438-.054687.050782-.082031.078125-6.164062 5.476563-9.738281 13.613281-9.738281 21.847657 0 8.285156 3.589844 16.3125 9.742188 21.851562.027343.023438.050781.050781.078124.074219-.027343.027343-.050781.050781-.078124.078125-6 5.460937-9.742188 13.585937-9.742188 21.851562 0 8.617188 3.726562 16.386719 9.652344 21.769532 5.386718 4.898437 12.492187 7.65625 19.773437 7.65625h61.011719c4.96875 0 9.90625-.230469 14.847656-.726563 24.269532-2.398437 40.457032-10.4375 50.558594-17.886719l2.054688 23.597656-72.183594 4.050782c-2.632813.148437-4.992188 1.664062-6.21875 3.996094l-33.667969 63.976562-62.914063-35.613281c-2.292968-1.300781-5.097656-1.300781-7.390624 0l-62.914063 35.613281-33.671875-63.976562c-1.226562-2.332032-3.585938-3.847657-6.214844-3.996094l-72.183594-4.050782 2.050782-23.601562c10.105468 7.449219 26.292968 15.492188 50.566406 17.890625 4.839844.476563 9.902344.722656 14.839844.722656 0 .003907 61.011718.003907 61.015625.003907zm0 0"/></svg>