<svg xmlns="http://www.w3.org/2000/svg" xmlns:xlink="http://www.w3.org/1999/xlink" viewBox="0 0 122.71 122.71"><defs><style>.cls-1{fill:url(#Dégradé_sans_nom_105);}.cls-2{fill:#fff;}</style><linearGradient id="Dégradé_sans_nom_105" x1="17.97" y1="104.74" x2="104.74" y2="17.97" gradientUnits="userSpaceOnUse"><stop offset="0.24" stop-color="#90d6cd"/><stop offset="0.37" stop-color="#8bcad5"/><stop offset="0.55" stop-color="#86bedc"/><stop offset="0.91" stop-color="#7eace6"/></linearGradient></defs><g id="Calque_2" data-name="Calque 2"><g id="OBJECTS_-_copie" data-name="OBJECTS - copie"><circle class="cls-1" cx="61.35" cy="61.35" r="61.35"/><path class="cls-2" d="M94.05,75.36l-9-9V56.46L93.87,60l1.79-4.49-8.88-3.55a9.62,9.62,0,0,0-1.69-18v-10H39.14V94H27.05v4.84H58.49V94H44V41.8L57.07,28.7H80.25v5.19a9.62,9.62,0,0,0-1.69,18l-8.87,3.55L71.49,60l8.76-3.51V66.4l-9,9,3.42,3.42,8-8,8,8ZM44,35V28.7h6.25Zm33.85,8.26a4.84,4.84,0,1,1,4.84,4.83,4.84,4.84,0,0,1-4.84-4.83Z"/></g></g></svg>