<svg xmlns="http://www.w3.org/2000/svg" xmlns:xlink="http://www.w3.org/1999/xlink" viewBox="0 0 75.89 53.18"><defs><style>.cls-1{fill:url(#Dégradé_sans_nom_105);}.cls-2{fill:url(#Dégradé_sans_nom_105-2);}.cls-3{fill:url(#Dégradé_sans_nom_105-3);}.cls-4{fill:url(#Dégradé_sans_nom_105-4);}.cls-5{fill:url(#Dégradé_sans_nom_105-5);}</style><linearGradient id="Dégradé_sans_nom_105" x1="15.71" y1="37.13" x2="60.18" y2="37.13" gradientUnits="userSpaceOnUse"><stop offset="0.24" stop-color="#90d6cd"/><stop offset="0.37" stop-color="#8bcad5"/><stop offset="0.55" stop-color="#86bedc"/><stop offset="0.91" stop-color="#7eace6"/></linearGradient><linearGradient id="Dégradé_sans_nom_105-2" x1="0" y1="35.18" x2="9.53" y2="35.18" xlink:href="#Dégradé_sans_nom_105"/><linearGradient id="Dégradé_sans_nom_105-3" x1="66.36" y1="35.18" x2="75.89" y2="35.18" xlink:href="#Dégradé_sans_nom_105"/><linearGradient id="Dégradé_sans_nom_105-4" x1="10.82" y1="34.21" x2="64.9" y2="34.21" xlink:href="#Dégradé_sans_nom_105"/><linearGradient id="Dégradé_sans_nom_105-5" x1="62.75" y1="13.82" x2="72.72" y2="13.82" xlink:href="#Dégradé_sans_nom_105"/></defs><g id="Calque_2" data-name="Calque 2"><g id="OBJECTS_-_copie" data-name="OBJECTS - copie"><path class="cls-1" d="M56.37,33.32H19.52a3.82,3.82,0,0,0,0,7.63H56.37a3.82,3.82,0,0,0,0-7.63ZM26.24,38.11a1.05,1.05,0,0,1-1.06,1.06H23.23a1.06,1.06,0,0,1-1.07-1.06v-2a1.07,1.07,0,0,1,1.07-1.07h1.95a1.06,1.06,0,0,1,1.06,1.07Zm27.48,0a1.05,1.05,0,0,1-1.06,1.06H50.71a1.05,1.05,0,0,1-1.06-1.06v-2a1.06,1.06,0,0,1,1.06-1.07h1.95a1.06,1.06,0,0,1,1.06,1.07Z"/><path class="cls-2" d="M9.53,41.66a20.13,20.13,0,0,1-.84-5.56V32.28a20.4,20.4,0,0,1,.37-3.57H6.4a6.48,6.48,0,0,0,0,12.95Z"/><path class="cls-3" d="M69.49,28.71H66.83a21.4,21.4,0,0,1,.37,3.57V36.1a20.13,20.13,0,0,1-.84,5.56h3.13a6.48,6.48,0,0,0,0-12.95Z"/><path class="cls-4" d="M64.9,32.3A17.06,17.06,0,0,0,47.83,15.24H27.88A17.06,17.06,0,0,0,10.82,32.3v3.82A17.06,17.06,0,0,0,27.88,53.18h20A17.06,17.06,0,0,0,64.9,36.12ZM56.37,43.07H19.52a5.94,5.94,0,1,1,0-11.88H56.37a5.94,5.94,0,1,1,0,11.88Z"/><path class="cls-5" d="M62.75,5a4.93,4.93,0,0,0,3.92,4.87v17.8H68.8V9.85A4.92,4.92,0,0,0,72.72,5a5,5,0,0,0-10,0Z"/></g></g></svg>