<svg xmlns="http://www.w3.org/2000/svg" xmlns:xlink="http://www.w3.org/1999/xlink" viewBox="0 0 66.84 66.84"><defs><style>.cls-1{fill:url(#Dégradé_sans_nom_105);}.cls-2{fill:url(#Dégradé_sans_nom_105-2);}</style><linearGradient id="Dégradé_sans_nom_105" x1="18.05" y1="31.64" x2="48.79" y2="31.64" gradientUnits="userSpaceOnUse"><stop offset="0.24" stop-color="#90d6cd"/><stop offset="0.37" stop-color="#8bcad5"/><stop offset="0.55" stop-color="#86bedc"/><stop offset="0.91" stop-color="#7eace6"/></linearGradient><linearGradient id="Dégradé_sans_nom_105-2" x1="0" y1="33.42" x2="66.84" y2="33.42" xlink:href="#Dégradé_sans_nom_105"/></defs><g id="Calque_2" data-name="Calque 2"><g id="OBJECTS_-_copie" data-name="OBJECTS - copie"><path class="cls-1" d="M37.71,25.72,33.42,17l-4.3,8.71a1.93,1.93,0,0,1-1.47,1.07l-9.6,1.39L25,35a1.94,1.94,0,0,1,.57,1.73l-1.64,9.57,8.59-4.52a1.94,1.94,0,0,1,.91-.22,2,2,0,0,1,.91.22l8.59,4.52-1.64-9.57A2,2,0,0,1,41.84,35l6.95-6.78-9.6-1.39a2,2,0,0,1-1.48-1.07Z"/><path class="cls-2" d="M33.42,0A33.42,33.42,0,1,0,66.84,33.42,33.46,33.46,0,0,0,33.42,0ZM54.37,28.22,45.31,37l2.14,12.47a2,2,0,0,1-.78,1.91,1.92,1.92,0,0,1-1.15.37,2,2,0,0,1-.91-.22L33.42,45.69,22.23,51.57a2,2,0,0,1-2.84-2.07L21.52,37l-9-8.82a2,2,0,0,1,1.09-3.34l12.51-1.82,5.59-11.34a2,2,0,0,1,3.51,0l5.6,11.34,12.51,1.82a2,2,0,0,1,1.09,3.34Z"/></g></g></svg>