<svg xmlns="http://www.w3.org/2000/svg" xmlns:xlink="http://www.w3.org/1999/xlink" viewBox="0 0 55.83 55.65"><defs><style>.cls-1{fill:url(#Dégradé_sans_nom_105);}.cls-2{fill:url(#Dégradé_sans_nom_105-2);}</style><linearGradient id="Dégradé_sans_nom_105" x1="-3.66" y1="47.91" x2="36.52" y2="7.74" gradientUnits="userSpaceOnUse"><stop offset="0.24" stop-color="#90d6cd"/><stop offset="0.37" stop-color="#8bcad5"/><stop offset="0.55" stop-color="#86bedc"/><stop offset="0.91" stop-color="#7eace6"/></linearGradient><linearGradient id="Dégradé_sans_nom_105-2" x1="27.39" y1="37.63" x2="46.99" y2="18.02" xlink:href="#Dégradé_sans_nom_105"/></defs><g id="Calque_2" data-name="Calque 2"><g id="OBJECTS_-_copie" data-name="OBJECTS - copie"><path class="cls-1" d="M27.82,51H7a2.32,2.32,0,0,1-2.32-2.32V7A2.32,2.32,0,0,1,7,4.64H27.82a2.32,2.32,0,1,0,0-4.64H7A7,7,0,0,0,0,7V48.69a7,7,0,0,0,7,7H27.82a2.32,2.32,0,1,0,0-4.64Z"/><path class="cls-2" d="M55.14,26.17,41,12.26a2.32,2.32,0,0,0-3.25,3.3l10.07,10h-27a2.32,2.32,0,1,0,0,4.63h27L37.79,40.08A2.32,2.32,0,0,0,41,43.39l14.1-13.92a2.32,2.32,0,0,0,0-3.3Z"/></g></g></svg>