<svg xmlns="http://www.w3.org/2000/svg" xmlns:xlink="http://www.w3.org/1999/xlink" viewBox="0 0 59.83 59.84"><defs><style>.cls-1{fill:url(#Dégradé_sans_nom_105);}</style><linearGradient id="Dégradé_sans_nom_105" x1="9.45" y1="59.11" x2="50.38" y2="18.18" gradientUnits="userSpaceOnUse"><stop offset="0.24" stop-color="#90d6cd"/><stop offset="0.37" stop-color="#8bcad5"/><stop offset="0.55" stop-color="#86bedc"/><stop offset="0.91" stop-color="#7eace6"/></linearGradient></defs><g id="Calque_2" data-name="Calque 2"><g id="OBJECTS_-_copie" data-name="OBJECTS - copie"><path class="cls-1" d="M58.23,26h0L33.81,1.61a5.52,5.52,0,0,0-7.79,0L1.62,26l0,0a5.51,5.51,0,0,0,3.67,9.38H6.41v18a6.45,6.45,0,0,0,6.45,6.45h9.55a1.75,1.75,0,0,0,1.75-1.75V44a2.94,2.94,0,0,1,2.94-2.94h5.63a3,3,0,0,1,3,2.94V58.09a1.75,1.75,0,0,0,1.75,1.75H47a6.46,6.46,0,0,0,6.45-6.45v-18h.9a5.46,5.46,0,0,0,3.89-1.61A5.52,5.52,0,0,0,58.23,26Z"/></g></g></svg>