<svg xmlns="http://www.w3.org/2000/svg" xmlns:xlink="http://www.w3.org/1999/xlink" viewBox="0 0 92.64 58.99"><defs><style>.cls-1{fill:url(#Dégradé_sans_nom_105);}.cls-2{fill:url(#Dégradé_sans_nom_105-2);}</style><linearGradient id="Dégradé_sans_nom_105" x1="66.63" y1="28.75" x2="73.53" y2="21.85" gradientUnits="userSpaceOnUse"><stop offset="0.24" stop-color="#90d6cd"/><stop offset="0.37" stop-color="#8bcad5"/><stop offset="0.55" stop-color="#86bedc"/><stop offset="0.91" stop-color="#7eace6"/></linearGradient><linearGradient id="Dégradé_sans_nom_105-2" x1="14.16" y1="63.69" x2="78.48" y2="-0.63" xlink:href="#Dégradé_sans_nom_105"/></defs><g id="Calque_2" data-name="Calque 2"><g id="OBJECTS_-_copie" data-name="OBJECTS - copie"><path class="cls-1" d="M70.08,20.42A4.88,4.88,0,1,0,75,25.3,4.89,4.89,0,0,0,70.08,20.42Z"/><path class="cls-2" d="M92.37,39.91,87.15,11.58A14.12,14.12,0,0,0,73.28,0H63.7a2.69,2.69,0,0,0-1.78.66L56.41,5.43H36.23L30.72.66A2.72,2.72,0,0,0,28.94,0H19.36A14.11,14.11,0,0,0,5.49,11.58L.27,39.91A16.1,16.1,0,0,0,28.79,52.78l6-7.64H57.89l6,7.64A16.11,16.11,0,0,0,92.37,39.91ZM30.18,28H26.25v3.93a2.72,2.72,0,1,1-5.43,0V28H16.89a2.72,2.72,0,1,1,0-5.43h3.93V18.65a2.72,2.72,0,0,1,5.43,0v3.93h3.93a2.72,2.72,0,0,1,0,5.43Zm39.9,7.6A10.31,10.31,0,1,1,80.39,25.3,10.33,10.33,0,0,1,70.08,35.61Z"/></g></g></svg>