<svg xmlns="http://www.w3.org/2000/svg" xmlns:xlink="http://www.w3.org/1999/xlink" viewBox="0 0 80.62 80.62"><defs><style>.cls-1{fill:url(#Dégradé_sans_nom_105);}</style><linearGradient id="Dégradé_sans_nom_105" x1="11.81" y1="68.81" x2="68.81" y2="11.81" gradientUnits="userSpaceOnUse"><stop offset="0.24" stop-color="#90d6cd"/><stop offset="0.37" stop-color="#8bcad5"/><stop offset="0.55" stop-color="#86bedc"/><stop offset="0.91" stop-color="#7eace6"/></linearGradient></defs><g id="Calque_2" data-name="Calque 2"><g id="OBJECTS_-_copie" data-name="OBJECTS - copie"><path class="cls-1" d="M78.72,31.13l-6.19-1.35a33.65,33.65,0,0,0-2-4.81L74,19.64a2.41,2.41,0,0,0-.32-3L64,7a2.41,2.41,0,0,0-3-.32l-5.34,3.43a33.53,33.53,0,0,0-4.8-2L49.49,1.9A2.41,2.41,0,0,0,47.14,0H33.48a2.41,2.41,0,0,0-2.35,1.9L29.78,8.09a33.65,33.65,0,0,0-4.81,2L19.64,6.66a2.41,2.41,0,0,0-3,.32L7,16.63a2.41,2.41,0,0,0-.32,3L10.09,25a33.65,33.65,0,0,0-2,4.81L1.9,31.13A2.41,2.41,0,0,0,0,33.48V47.14a2.41,2.41,0,0,0,1.9,2.35l6.19,1.35a33.53,33.53,0,0,0,2,4.8L6.66,61A2.41,2.41,0,0,0,7,64l9.65,9.65a2.41,2.41,0,0,0,3,.32L25,70.53a33.65,33.65,0,0,0,4.81,2l1.35,6.19a2.41,2.41,0,0,0,2.35,1.9H47.14a2.41,2.41,0,0,0,2.35-1.9l1.35-6.19a33.53,33.53,0,0,0,4.8-2L61,74a2.41,2.41,0,0,0,3-.32L73.64,64A2.41,2.41,0,0,0,74,61l-3.43-5.34a33.53,33.53,0,0,0,2-4.8l6.19-1.35a2.41,2.41,0,0,0,1.9-2.35V33.48A2.41,2.41,0,0,0,78.72,31.13Zm-24,9.18A14.45,14.45,0,1,1,40.31,25.86,14.46,14.46,0,0,1,54.76,40.31Z"/></g></g></svg>