<svg xmlns="http://www.w3.org/2000/svg" viewBox="0 0 96 96"><defs><style>.cls-1,.cls-2{opacity:0.8;}.cls-2{fill:#436697;}</style></defs><g id="Calque_2" data-name="Calque 2"><g id="Capa_1" data-name="Capa 1"><g class="cls-1"><path class="cls-2" d="M48.07,75.7A27.58,27.58,0,0,0,73.63,59.39a1.43,1.43,0,0,0-1.31-2l-48.64-.06h0a1.42,1.42,0,0,0-1.19.64,1.39,1.39,0,0,0-.13,1.34C26.49,69.26,36.58,75.7,48.07,75.7ZM68,61.38A23.89,23.89,0,0,1,48.07,71.7,23.89,23.89,0,0,1,27.94,61.34ZM28.21,33.64a6.2,6.2,0,1,1,6.2,6.2A6.21,6.21,0,0,1,28.21,33.64Zm28.12,0a6.2,6.2,0,1,1,6.2,6.2A6.21,6.21,0,0,1,56.33,33.64ZM79.12,96H16.88A16.9,16.9,0,0,1,0,79.12V16.88A16.9,16.9,0,0,1,16.88,0H79.12A16.9,16.9,0,0,1,96,16.88V79.12A16.9,16.9,0,0,1,79.12,96ZM14.38,4.73a9.66,9.66,0,0,0-9.65,9.65V81.62a9.66,9.66,0,0,0,9.65,9.65H81.62a9.66,9.66,0,0,0,9.65-9.65V14.38a9.66,9.66,0,0,0-9.65-9.65Z"/></g></g></g></svg>