<svg xmlns="http://www.w3.org/2000/svg" xmlns:xlink="http://www.w3.org/1999/xlink" viewBox="0 0 176.5 176.5"><defs><style>.cls-1{fill:none;}.cls-2{opacity:0.8;}.cls-3{clip-path:url(#clip-path);}.cls-4{fill:#436697;}.cls-5{fill:#436798;}</style><clipPath id="clip-path" transform="translate(0 0)"><rect class="cls-1" width="176.5" height="176.5"/></clipPath></defs><g id="Calque_2" data-name="Calque 2"><g id="sad_-_copie_5" data-name="sad - copie 5"><g class="cls-2"><g class="cls-3"><path class="cls-4" d="M164.74,79.42h-3V67.66A20.6,20.6,0,0,0,141.2,47.07h-50V29.12a14.7,14.7,0,1,0-5.88,0v18h-50A20.6,20.6,0,0,0,14.71,67.66V79.42H11.77A11.77,11.77,0,0,0,0,91.19v17.65a11.77,11.77,0,0,0,11.77,11.77h2.94v11.77A20.62,20.62,0,0,0,35.3,153v20.59A2.94,2.94,0,0,0,39.87,176L73.7,153.46a2.94,2.94,0,0,1,1.62-.49H141.2a20.62,20.62,0,0,0,20.59-20.59V120.61h3a11.77,11.77,0,0,0,11.76-11.77V91.19a11.77,11.77,0,0,0-11.76-11.77ZM79.43,14.71a8.83,8.83,0,1,1,8.82,8.82,8.82,8.82,0,0,1-8.82-8.82Zm-67.66,100a5.89,5.89,0,0,1-5.89-5.89V91.19a5.89,5.89,0,0,1,5.89-5.88h2.94v29.41H11.77Zm144.14,17.65a14.72,14.72,0,0,1-14.71,14.7H75.32a8.85,8.85,0,0,0-4.89,1.47L41.18,168.06V153a5.89,5.89,0,0,0-5.88-5.89,14.72,14.72,0,0,1-14.71-14.7V67.66A14.73,14.73,0,0,1,35.3,53H141.2a14.73,14.73,0,0,1,14.71,14.71Zm14.71-23.54a5.89,5.89,0,0,1-5.88,5.89h-3V85.31h3a5.88,5.88,0,0,1,5.88,5.88Z" transform="translate(0 0)"/></g></g><g class="cls-2"><path class="cls-5" d="M121.31,99.8a2.48,2.48,0,0,0-2.75,2.18c-1.8,15.47-14.3,27.14-29.09,27.14S62.18,117.45,60.38,102a2.48,2.48,0,1,0-4.92.57c2.09,18,16.71,31.53,34,31.53s31.92-13.56,34-31.53A2.48,2.48,0,0,0,121.31,99.8Z" transform="translate(0 0)"/><path class="cls-5" d="M51.67,72l-12.8,7.84a2.48,2.48,0,0,0,1.3,4.59A2.42,2.42,0,0,0,41.46,84l12.8-7.85A2.48,2.48,0,1,0,51.67,72Z" transform="translate(0 0)"/><path class="cls-5" d="M137.63,82.46l-12.8-7.84a2.48,2.48,0,0,0-2.59,4.22L135,86.68a2.44,2.44,0,0,0,1.29.37,2.48,2.48,0,0,0,1.3-4.59Z" transform="translate(0 0)"/></g></g></g></svg>