<svg xmlns="http://www.w3.org/2000/svg" viewBox="0 0 96 96"><defs><style>.cls-1,.cls-2{opacity:0.8;}.cls-2{fill:#436697;}</style></defs><g id="Calque_2" data-name="Calque 2"><g id="Capa_1" data-name="Capa 1"><g class="cls-1"><path class="cls-2" d="M32.91,40.6l-9.39-9.46a3.16,3.16,0,0,1,0-4.45,3.11,3.11,0,0,1,4.42,0l9.4,9.45a3.16,3.16,0,0,1,0,4.45A3.13,3.13,0,0,1,32.91,40.6ZM72.48,26.69a3.16,3.16,0,0,1,0,4.45L63.09,40.6a3.11,3.11,0,0,1-4.42,0,3.16,3.16,0,0,1,0-4.45l9.39-9.46A3.11,3.11,0,0,1,72.48,26.69ZM70.46,66A3.47,3.47,0,0,1,67,69.48H29a3.48,3.48,0,0,1,0-7H67A3.47,3.47,0,0,1,70.46,66Zm8.66,30H16.88A16.9,16.9,0,0,1,0,79.12V16.88A16.9,16.9,0,0,1,16.88,0H79.12A16.9,16.9,0,0,1,96,16.88V79.12A16.9,16.9,0,0,1,79.12,96ZM14.61,4.73A9.63,9.63,0,0,0,5,14.38V81.62a9.63,9.63,0,0,0,9.59,9.65H81.39A9.63,9.63,0,0,0,91,81.62V14.38a9.63,9.63,0,0,0-9.59-9.65Z"/></g></g></g></svg>