<svg xmlns="http://www.w3.org/2000/svg" viewBox="0 0 96 96"><defs><style>.cls-1{opacity:0.65;}.cls-2{fill:#436697;}</style></defs><g id="Calque_2" data-name="Calque 2"><g id="Capa_1" data-name="Capa 1"><g class="cls-1"><path class="cls-2" d="M71,57A24.15,24.15,0,0,1,58,69.69v3.94a10,10,0,0,1-20,0V69.7A23.7,23.7,0,0,1,25,57,3,3,0,0,1,26.62,53a3.05,3.05,0,0,1,1.15-.22,3,3,0,0,1,2.77,1.85c2.77,6.68,9.65,11,17.52,11a18.76,18.76,0,0,0,17.42-11A3,3,0,0,1,71,57ZM56.33,33.64c0-1.2,2.78-2.17,6.2-2.17s6.2,1,6.2,2.17-2.78,2.17-6.2,2.17S56.33,34.84,56.33,33.64Zm-28.12,0a6.2,6.2,0,1,1,6.2,6.2A6.21,6.21,0,0,1,28.21,33.64ZM79.12,96H16.88A16.9,16.9,0,0,1,0,79.12V16.88A16.9,16.9,0,0,1,16.88,0H79.12A16.9,16.9,0,0,1,96,16.88V79.12A16.9,16.9,0,0,1,79.12,96ZM14.38,4.73a9.66,9.66,0,0,0-9.65,9.65V81.62a9.66,9.66,0,0,0,9.65,9.65H81.62a9.66,9.66,0,0,0,9.65-9.65V14.38a9.66,9.66,0,0,0-9.65-9.65Z"/></g></g></g></svg>