<svg xmlns="http://www.w3.org/2000/svg" xmlns:xlink="http://www.w3.org/1999/xlink" viewBox="0 0 176.5 176.5"><defs><style>.cls-1{fill:none;}.cls-2{opacity:0.8;}.cls-3{clip-path:url(#clip-path);}.cls-4{fill:#436697;}.cls-5{fill:#436798;}</style><clipPath id="clip-path" transform="translate(0 0)"><rect class="cls-1" width="176.5" height="176.5"/></clipPath></defs><g id="Calque_2" data-name="Calque 2"><g id="sad_-_copie_2" data-name="sad - copie 2"><g class="cls-2"><g class="cls-3"><path class="cls-4" d="M164.74,79.42h-3V67.66A20.6,20.6,0,0,0,141.2,47.07h-50V29.12a14.7,14.7,0,1,0-5.88,0v18h-50A20.6,20.6,0,0,0,14.71,67.66V79.42H11.77A11.77,11.77,0,0,0,0,91.19v17.65a11.77,11.77,0,0,0,11.77,11.77h2.94v11.77A20.62,20.62,0,0,0,35.3,153v20.59A2.94,2.94,0,0,0,39.87,176L73.7,153.46a2.94,2.94,0,0,1,1.62-.49H141.2a20.62,20.62,0,0,0,20.59-20.59V120.61h3a11.77,11.77,0,0,0,11.76-11.77V91.19a11.77,11.77,0,0,0-11.76-11.77ZM79.43,14.71a8.83,8.83,0,1,1,8.82,8.82,8.82,8.82,0,0,1-8.82-8.82Zm-67.66,100a5.89,5.89,0,0,1-5.89-5.89V91.19a5.89,5.89,0,0,1,5.89-5.88h2.94v29.41H11.77Zm144.14,17.65a14.72,14.72,0,0,1-14.71,14.7H75.32a8.85,8.85,0,0,0-4.89,1.47L41.18,168.06V153a5.89,5.89,0,0,0-5.88-5.89,14.72,14.72,0,0,1-14.71-14.7V67.66A14.73,14.73,0,0,1,35.3,53H141.2a14.73,14.73,0,0,1,14.71,14.71Zm14.71-23.54a5.89,5.89,0,0,1-5.88,5.89h-3V85.31h3a5.88,5.88,0,0,1,5.88,5.88Z" transform="translate(0 0)"/></g></g><g class="cls-2"><path class="cls-5" d="M61.46,90.92a2,2,0,0,1-2-2A10.45,10.45,0,0,0,58,84.2c-1.88-3-5.22-4.51-9.9-4.51H48c-10.12,0-11.51,8.52-11.57,8.88A2,2,0,1,1,32.46,88c.64-4.22,4.69-12.21,15.47-12.26h.12c15.07,0,15.39,13.06,15.39,13.2a2,2,0,0,1-2,2Z" transform="translate(0 0)"/><path class="cls-5" d="M142.08,90.92a2,2,0,0,1-2-2,10.45,10.45,0,0,0-1.53-4.76c-1.88-3-5.22-4.51-9.91-4.51h-.09c-10.12,0-11.51,8.52-11.57,8.88a2,2,0,1,1-3.92-.59c.64-4.22,4.69-12.21,15.47-12.26h.12c15.07,0,15.39,13.06,15.39,13.2a2,2,0,0,1-2,2Z" transform="translate(0 0)"/><path class="cls-5" d="M88.25,131.56c16.88,0,30.56-10.28,30.56-23H57.69C57.69,121.28,71.37,131.56,88.25,131.56Z" transform="translate(0 0)"/></g></g></g></svg>