<svg xmlns="http://www.w3.org/2000/svg" viewBox="0 0 95 96"><defs><style>.cls-1{opacity:0.65;}.cls-2{fill:#436697;}</style></defs><g id="Calque_2" data-name="Calque 2"><g id="Capa_1" data-name="Capa 1"><g class="cls-1"><path class="cls-2" d="M53.33,36.64a8.7,8.7,0,1,1,17.4,0,2.5,2.5,0,0,1-5,0,3.7,3.7,0,0,0-7.4,0,2.5,2.5,0,0,1-5,0Zm-27.72,0a8.7,8.7,0,1,1,17.4,0,2.5,2.5,0,0,1-5,0,3.7,3.7,0,1,0-7.4,0,2.5,2.5,0,0,1-5,0ZM24.5,59A3,3,0,0,1,26.12,55a3.06,3.06,0,0,1,1.15-.23A3,3,0,0,1,30,56.66c2.78,6.69,9.65,11,17.52,11A18.76,18.76,0,0,0,65,56.66,3,3,0,1,1,70.49,59,24.75,24.75,0,0,1,47.56,73.67C37.26,73.67,28.21,67.9,24.5,59ZM78.3,96H16.7A16.81,16.81,0,0,1,0,79.12V16.88A16.81,16.81,0,0,1,16.7,0H78.3A16.81,16.81,0,0,1,95,16.88V79.12A16.81,16.81,0,0,1,78.3,96ZM13.88,4.73a9.66,9.66,0,0,0-9.65,9.65V81.62a9.66,9.66,0,0,0,9.65,9.65H81.12a9.66,9.66,0,0,0,9.65-9.65V14.38a9.66,9.66,0,0,0-9.65-9.65Z"/></g></g></g></svg>