<svg xmlns="http://www.w3.org/2000/svg" viewBox="0 0 96 96"><defs><style>.cls-1,.cls-2{opacity:0.8;}.cls-2{fill:#436697;}</style></defs><g id="Calque_2" data-name="Calque 2"><g id="Capa_1" data-name="Capa 1"><g class="cls-1"><path class="cls-2" d="M29.44,27.45c-3.46-1.34-2.1-4.77-2.1-4.77,1.31-3.36,5-1.91,5-1.91,3.2,1.24,5.38,7,5.38,7a11.56,11.56,0,0,0-4.6-.16A6.91,6.91,0,0,1,29.44,27.45Zm4,12.86c-1.82,0-3.29-2.09-3.29-4.67S31.6,31,33.41,31s3.29,2.09,3.29,4.67S35.23,40.31,33.41,40.31ZM67.73,22.58S69.1,26,65.64,27.35a6.93,6.93,0,0,1-3.71.13,11.56,11.56,0,0,0-4.6.16s2.17-5.73,5.37-7C62.7,20.66,66.43,19.22,67.73,22.58ZM65,35.54c0,2.58-1.48,4.67-3.3,4.67s-3.29-2.09-3.29-4.67,1.48-4.67,3.29-4.67S65,33,65,35.54Zm-.6,30.6A16.36,16.36,0,1,1,48,49.77,16.38,16.38,0,0,1,64.36,66.14ZM79.12,96H16.88A16.9,16.9,0,0,1,0,79.12V16.88A16.9,16.9,0,0,1,16.88,0H79.12A16.9,16.9,0,0,1,96,16.88V79.12A16.9,16.9,0,0,1,79.12,96ZM14.38,4.73a9.66,9.66,0,0,0-9.65,9.65V81.62a9.66,9.66,0,0,0,9.65,9.65H81.62a9.66,9.66,0,0,0,9.65-9.65V14.38a9.66,9.66,0,0,0-9.65-9.65Z"/></g></g></g></svg>