<svg xmlns="http://www.w3.org/2000/svg" viewBox="0 0 96 96"><defs><style>.cls-1{opacity:0.65;}.cls-2{fill:#436697;}</style></defs><g id="Calque_2" data-name="Calque 2"><g id="Capa_1" data-name="Capa 1"><g class="cls-1"><path class="cls-2" d="M71,66.65A3,3,0,0,1,65.48,69,18.77,18.77,0,0,0,48.06,58c-7.87,0-14.75,4.32-17.52,11a3,3,0,0,1-2.77,1.85,3.06,3.06,0,0,1-1.15-.23A3,3,0,0,1,25,66.73C28.71,57.8,37.76,52,48.06,52A24.76,24.76,0,0,1,71,66.65ZM27.21,31.32a6.2,6.2,0,1,1,6.2,6.2A6.21,6.21,0,0,1,27.21,31.32Zm28.12,0a6.2,6.2,0,1,1,6.2,6.2A6.21,6.21,0,0,1,55.33,31.32ZM79.12,96H16.88A16.9,16.9,0,0,1,0,79.12V16.88A16.9,16.9,0,0,1,16.88,0H79.12A16.9,16.9,0,0,1,96,16.88V79.12A16.9,16.9,0,0,1,79.12,96ZM14.38,4.73a9.66,9.66,0,0,0-9.65,9.65V81.62a9.66,9.66,0,0,0,9.65,9.65H81.62a9.66,9.66,0,0,0,9.65-9.65V14.38a9.66,9.66,0,0,0-9.65-9.65Z"/></g></g></g></svg>